PathFileType	4	(X/Y/Z)	E:\Qualisys_Data\Carbon_Farble_Plate\Data\Amateur_Runner\S2\T3\S2T3V13_c3d.trc
DataRate	CameraRate	NumFrames	NumMarkers	Units	OrigDataRate	OrigDataStartFrame	OrigNumFrames
200.000000	200.000000	4	39	mm	200.000000	0	312
Frame#	Time	LSHO			RSHO			LICST			RICST			LASIS			LHEEL			RASIS			LTROC			RTROC			SACR			LTH1			LSK4			LTH2			LTH3			RHM5			LSK2			LTH4			RTH1			LTOE			RTH2			RTH3			RTH4			LLEP			RLEP			LSK1			LSK3			RSK1			LHM5			RSK2			LFT1			RSK3			RSK4			LLME			RLME			RTOE			RHEEL			RFT1			RFT2			LFT2			
		X1	Y1	Z1	X2	Y2	Z2	X3	Y3	Z3	X4	Y4	Z4	X5	Y5	Z5	X6	Y6	Z6	X7	Y7	Z7	X8	Y8	Z8	X9	Y9	Z9	X10	Y10	Z10	X11	Y11	Z11	X12	Y12	Z12	X13	Y13	Z13	X14	Y14	Z14	X15	Y15	Z15	X16	Y16	Z16	X17	Y17	Z17	X18	Y18	Z18	X19	Y19	Z19	X20	Y20	Z20	X21	Y21	Z21	X22	Y22	Z22	X23	Y23	Z23	X24	Y24	Z24	X25	Y25	Z25	X26	Y26	Z26	X27	Y27	Z27	X28	Y28	Z28	X29	Y29	Z29	X30	Y30	Z30	X31	Y31	Z31	X32	Y32	Z32	X33	Y33	Z33	X34	Y34	Z34	X35	Y35	Z35	X36	Y36	Z36	X37	Y37	Z37	X38	Y38	Z38	X39	Y39	Z39	

1	0	-2463.5068359375	1524.984375	-521.8724975585938	-2509.65576171875	1501.015502929688	-217.3684387207031	-2548.701171875	1067.470581054688	-525.5524291992188	-2540.8037109375	1053.037475585938	-229.083984375	-2501.0419921875	1011.815307617188	-514.2684936523438	-3034.344970703125	363.9451904296875	-430.4176940917969	-2485.05322265625	1005.101318359375	-259.7916564941406	-2649.406005859375	964.6090698242188	-529.1002807617188	-2618.347900390625	947.6226196289062	-216.7520904541016	-2642.328125	1106.819946289062	-378.1445617675781	-2608.1533203125	705.9940185546875	-537.0186767578125	-2918.087890625	463.5617370605469	-512.6022338867188	-2686.43896484375	733.557861328125	-536.3272094726562	-2642.712890625	609.7821044921875	-520.5473022460938	-2236.644287109375	162.976318359375	-227.5943908691406	-2845.129150390625	530.23388671875	-527.856689453125	-2721.543212890625	641.2413330078125	-514.0877685546875	-2423.86328125	705.995849609375	-217.3138275146484	-2987.796630859375	119.9896697998047	-464.8225708007812	-2500.127685546875	685.676025390625	-214.0872039794922	-2399.3701171875	610.693115234375	-241.0124816894531	-2477.442626953125	592.5314331054688	-234.28955078125	-2710.6884765625	585.524658203125	-521.013671875	-2437.934814453125	565.9666748046875	-233.3188171386719	-2792.49365234375	471.8909912109375	-529.169677734375	-2867.224609375	404.6497192382812	-521.24560546875	-2383.130859375	453.7562866210938	-228.9883880615234	-3035.906005859375	174.8835296630859	-508.415283203125	-2462.002197265625	440.1127624511719	-221.1955261230469	-3047.8251953125	346.8420715332031	-394.433349609375	-2365.669677734375	353.6829223632812	-237.8073120117188	-2445.12353515625	342.9505004882812	-233.5975189208984	-3018.71826171875	311.3671569824219	-487.5599975585938	-2365.36376953125	160.7736358642578	-264.5038452148438	-2180.647705078125	207.6621398925781	-277.064697265625	-2415.1259765625	119.2862319946289	-327.7036437988281	-2386.956298828125	104.2584915161133	-355.4451599121094	-2404.344482421875	94.20724487304688	-307.4412536621094	-3068.43310546875	352.1300048828125	-445.3851928710938
2	0.005	-2447.819580078125	1523.642700195312	-521.1531372070312	-2494.30224609375	1499.14111328125	-216.4344024658203	-2533.149658203125	1066.39306640625	-525.4686889648438	-2525.069091796875	1050.745849609375	-228.5807037353516	-2484.883544921875	1010.365417480469	-513.4171752929688	-3021.21435546875	368.94189453125	-428.5190734863281	-2469.017822265625	1003.112426757812	-259.2841491699219	-2632.790771484375	963.1777954101562	-529.2946166992188	-2602.882080078125	945.2725219726562	-216.6287384033203	-2626.812744140625	1104.752685546875	-377.5858764648438	-2588.886474609375	703.74462890625	-535.7484130859375	-2902.31201171875	466.6396484375	-511.9743041992188	-2667.7373046875	730.923828125	-537.4041137695312	-2623.6630859375	607.4203491210938	-519.8753662109375	-2219.563720703125	163.1396179199219	-229.4620056152344	-2828.08447265625	531.5210571289062	-528.1881713867188	-2702.60986328125	638.763427734375	-515.0249633789062	-2409.510009765625	703.1102905273438	-215.7957763671875	-2978.3046875	125.2011337280273	-465.9075622558594	-2485.934814453125	682.4519653320312	-213.1945648193359	-2384.354248046875	607.2686767578125	-239.9018249511719	-2464.409423828125	589.5564575195312	-235.1338806152344	-2692.397705078125	583.4929809570312	-522.208984375	-2423.308349609375	563.738037109375	-232.7969970703125	-2777.50244140625	471.823486328125	-529.74072265625	-2853.612060546875	406.9028930664062	-521.1757202148438	-2366.43310546875	452.3480529785156	-229.5199890136719	-3025.77392578125	182.0358276367188	-509.0135192871094	-2445.82373046875	438.5880126953125	-221.4113159179688	-3036.15283203125	352.1198425292969	-393.7991027832031	-2348.58642578125	353.1295166015625	-239.0949859619141	-2427.60546875	342.2354736328125	-234.2433013916016	-3007.532470703125	317.6060180664062	-487.3301086425781	-2348.03271484375	160.2685852050781	-265.795166015625	-2163.69140625	208.5711212158203	-278.937255859375	-2397.0703125	117.9445266723633	-328.3859558105469	-2369.342041015625	102.86767578125	-356.3474731445312	-2386.641357421875	93.08565521240234	-308.7964782714844	-3056.0693359375	358.675537109375	-444.4143981933594
3	0.01	-2432.827880859375	1522.451782226562	-520.6378784179688	-2479.162841796875	1497.011474609375	-215.4500427246094	-2518.049072265625	1065.12451171875	-525.1617431640625	-2510.157958984375	1048.833862304688	-228.4045257568359	-2468.76318359375	1009.500244140625	-513.1527709960938	-3008.19873046875	374.6287841796875	-427.29296875	-2453.451171875	1001.403686523438	-259.2481384277344	-2616.864013671875	961.3314208984376	-529.863525390625	-2587.97021484375	942.6444702148438	-217.2461242675781	-2611.365478515625	1103.038208007812	-377.3902893066406	-2570.194580078125	701.5631713867188	-535.8861694335938	-2886.483642578125	469.9723205566406	-511.46484375	-2649.05810546875	728.4530029296875	-538.0672607421875	-2605.10546875	605.6448364257812	-521.0896606445312	-2202.906494140625	162.6428985595703	-231.2539978027344	-2811.05224609375	532.8829345703125	-528.2289428710938	-2683.34326171875	635.108154296875	-515.6720581054688	-2394.1640625	699.7952880859375	-213.416015625	-2970.1123046875	131.1232604980469	-467.5723876953125	-2470.80615234375	679.0385131835938	-212.1837158203125	-2370.19140625	603.739501953125	-239.0660552978516	-2448.8505859375	586.8590087890625	-235.0084991455078	-2673.0791015625	580.6032104492188	-522.7210083007812	-2407.98828125	561.7613525390625	-232.5442352294922	-2761.672119140625	471.3947143554688	-530.467529296875	-2839.220703125	408.7885437011719	-520.6852416992188	-2350.906982421875	451.258056640625	-229.9364013671875	-3015.374267578125	189.2311248779297	-509.7890014648438	-2430.0693359375	437.33349609375	-222.0247039794922	-3023.979736328125	357.1985473632812	-392.5771179199219	-2331.684814453125	351.4964599609375	-240.4255981445312	-2411.928466796875	340.8198547363281	-234.9733428955078	-2995.409912109375	323.579345703125	-486.3889465332031	-2331.625244140625	159.0499267578125	-266.4183044433594	-2147.5439453125	208.8720855712891	-281.1445617675781	-2380.684814453125	116.5501861572266	-329.4913024902344	-2353.021240234375	102.0260543823242	-357.6328430175781	-2369.447021484375	91.19835662841795	-309.7245788574219	-3042.5859375	364.7733764648438	-443.2594299316406
4	0.015	-2417.33642578125	1521.102905273438	-519.6110229492188	-2463.99560546875	1494.630859375	-214.4749755859375	-2503.049560546875	1063.926025390625	-525.0863647460938	-2495.43798828125	1046.439086914062	-228.1955871582031	-2453.64404296875	1008.268920898438	-513.7542724609375	-2994.567138671875	380.3101501464844	-425.9337463378906	-2437.672607421875	999.3336791992188	-258.5711364746094	-2600.7265625	959.2459106445312	-529.9973754882812	-2573.04296875	940.0133056640624	-217.7854156494141	-2595.794921875	1101.15283203125	-377.1285095214844	-2552.370361328125	699.335205078125	-536.098388671875	-2870.3291015625	472.4775695800781	-511.1024169921875	-2630.60595703125	725.6856689453125	-538.7183837890625	-2585.562744140625	602.5559692382812	-521.923095703125	-2186.4306640625	161.7988128662109	-232.6731109619141	-2792.80810546875	532.8492431640625	-528.3438110351562	-2664.5244140625	632.1864013671875	-516.6677856445312	-2378.194091796875	697.0545043945312	-211.75830078125	-2959.15771484375	136.0306243896484	-468.9889831542969	-2455.517333984375	676.1270141601562	-210.5271606445312	-2354.289794921875	601.1541137695312	-238.9635467529297	-2433.630126953125	584.0028076171875	-235.5093078613281	-2654.013916015625	577.707763671875	-523.5255737304688	-2392.274658203125	560.1510620117188	-233.0930023193359	-2745.844482421875	470.7506103515625	-531.0287475585938	-2824.488525390625	409.822998046875	-520.465576171875	-2334.67138671875	449.3207397460938	-231.2631530761719	-3004.90625	195.7333068847656	-511.6930541992188	-2413.8232421875	435.6129760742188	-222.4842224121094	-3010.621337890625	362.775634765625	-391.5510864257812	-2317.28369140625	350.3028869628906	-241.1973876953125	-2395.80029296875	338.6390075683594	-235.6249084472656	-2982.56103515625	329.2530517578125	-485.4868469238281	-2315.6103515625	157.2790679931641	-267.8897094726562	-2132.5849609375	207.8185729980469	-282.7794189453125	-2365.941162109375	115.5572891235352	-330.5745544433594	-2337.69140625	100.1141891479492	-358.3434753417969	-2353.896484375	89.48545837402344	-310.3339538574219	-3029.309814453125	371.3620300292969	-442.4583435058594
